<svg id="Layer_1" data-name="Layer 1" xmlns="http://www.w3.org/2000/svg" xmlns:xlink="http://www.w3.org/1999/xlink" viewBox="0 0 1500 1500"><defs><style>.cls-1{fill:none;}.cls-2{clip-path:url(#clip-path);}.cls-3{fill:#ff645e;}.cls-4{fill:#fff;}</style><clipPath id="clip-path"><circle class="cls-1" cx="750" cy="750" r="750"/></clipPath></defs><g class="cls-2"><circle class="cls-3" cx="750.203" cy="1201.579" r="1565.187"/><path class="cls-4" d="M-116.375,855.94,123.724,59l152.57,45.965L446.117,769.593,365.283,745.24,867.17,282.977l153.691,46.3-240.1,796.945-171.914-51.793L766.755,542.071l34.156,10.29L397.773,917.709,315.8,893.014,178.153,364.74l37.566,11.318L55.539,907.734Z"/><path class="cls-4" d="M614.445,1076.117l594.176-690.27,182.162,54.881,117.389,904.647-193.548-58.312L1234.01,495.324l74,22.293L803.444,1133.059Zm230.2-116.924,88.867-125.969,412.139,124.167,5.627,154.437Z"/></g></svg>